<svg id="Layer_1" xmlns="http://www.w3.org/2000/svg" viewBox="0 0 60 80"><style>.st0{fill:#FFFFFF;} .st1{fill:#DFDCD9;} .st2{fill:#BFBAB4;} .st3{fill:#502C0A;} .st4{fill:#808080;}</style><path class="st0" d="M56.4 17.9C56.4 11.3 51.1 6 44.5 6c-1.5 0-2.9.3-4.2.8-1.9-4-6-6.8-10.7-6.8-4.7 0-8.7 2.7-10.6 6.6-1-.4-2.3-.6-3.5-.6C8.9 6 3.6 11.3 3.6 17.9c0 6.2 4.7 11.3 10.8 11.8v4c0 4.4 3.6 8 8 8h14.8c4.4 0 8-3.6 8-8v-4c6.2-.4 11.2-5.5 11.2-11.8z"/><path class="st1" d="M30.2 35.3h-.4c-.5 0-.9-.4-.9-.9v-9.8c0-.5.4-.9.9-.9h.4c.5 0 .9.4.9.9v9.8c0 .5-.4.9-.9.9zM38.6 37.9h-.4c-.5 0-.9-.4-.9-.9v-9.8c0-.5.4-.9.9-.9h.4c.5 0 .9.4.9.9V37c0 .5-.4.9-.9.9zM21.6 37.9h-.4c-.5 0-.9-.4-.9-.9v-9.8c0-.5.4-.9.9-.9h.4c.5 0 .9.4.9.9V37c0 .5-.4.9-.9.9z"/><ellipse class="st2" cx="30" cy="56.6" rx="30" ry="23.4"/><ellipse class="st3" cx="44.8" cy="57.1" rx="3.8" ry="3.8"/><ellipse class="st3" cx="15.2" cy="57.1" rx="3.8" ry="3.8"/><path class="st4" d="M30 33.2c-5.6 0-10.9 1.2-15.4 3.3C15.8 44 22.2 49.7 30 49.7S44.2 44 45.4 36.5c-4.5-2.1-9.8-3.3-15.4-3.3zM30 80c4.2 0 8.2-.7 11.8-1.9C40.9 72.4 36 68 30 68c-6 0-10.9 4.4-11.8 10.1C21.8 79.3 25.8 80 30 80z"/></svg>