<svg version="1.1" id="Layer_1" xmlns="http://www.w3.org/2000/svg" xmlns:xlink="http://www.w3.org/1999/xlink" x="0px" y="0px" viewBox="0 0 50 28" xml:space="preserve">
  <path d="M25.2,22.4H13.1v-9.3h4.7c1.1,0,2.2-0.7,2.6-1.7c0.4-1,0.2-2.3-0.6-3.1l-7.5-7.5c-1.1-1.1-2.9-1.1-4,0L0.8,8.3
    c-0.8,0.8-1,2-0.6,3.1c0.4,1,1.5,1.7,2.6,1.7h4.7v12.1c0,1.5,1.3,2.8,2.8,2.8h14.9c1.5,0,2.8-1.3,2.8-2.8
    C28,23.7,26.7,22.4,25.2,22.4z"/>
    <path d="M49.8,16.7c-0.4-1-1.5-1.7-2.6-1.7h-4.7V2.8c0-1.5-1.3-2.8-2.8-2.8H24.8C23.3,0,22,1.3,22,2.8s1.3,2.8,2.8,2.8h12.1v9.3
      h-4.7c-1.1,0-2.2,0.7-2.6,1.7c-0.4,1-0.2,2.3,0.6,3.1l7.5,7.5c0.5,0.5,1.3,0.8,2,0.8c0.7,0,1.4-0.3,2-0.8l7.5-7.5
      C50,18.9,50.2,17.7,49.8,16.7z"/>
    </svg>
